#N canvas 930 511 966 692 12;
#X obj 346 93 openpanel;
#X obj 346 175 readsf~;
#X obj 345 479 dac~;
#X obj 346 31 bng 15 250 50 0 empty empty empty 17 7 0 10 #fcfcfc #000000
#000000;
#X obj 384 219 env~;
#X obj 384 356 pack 0 100;
#X obj 384 389 vline~;
#X floatatom 439 305 5 0 0 0 - - - 0;
#X obj 439 167 vsl 15 128 0 100 0 0 empty empty empty 0 -9 0 10 #fcfcfc
#000000 #000000 0 1;
#X obj 345 422 *~;
#X obj 384 323 > 70;
#X obj 651 478 writesf~;
#X obj 511 478 tabwrite~ array1;
#X msg 682 428 stop, f 5;
#X obj 511 134 metro 100;
#N canvas 0 50 450 250 (subpatch) 0;
#X array array1 100 float 3;
#A 0 0 0 0 0 0 0 0 0 0 0 0 0 0 0 0 0 0 0 0 0 0 0 0 0 0 0 0 0 0 0 0
0 0 0 0 0 0 0 0 0 0 0 0 0 0 0 0 0 0 0 0 0 0 0 0 0 0 0 0 0 0 0 0 0 0
0 0 0 0 0 0 0 0 0 0 0 0 0 0 0 0 0 0 0 0 0 0 0 0 0 0 0 0 0 0 0 0 0 0
0;
#X coords 0 1 100 -1 200 140 1;
#X restore 68 219 graph;
#X text 257 30 Select Input;
#X msg 346 134 open \$1;
#X msg 447 134 start;
#X obj 478 95 bng 15 250 50 0 empty empty empty 17 7 0 10 #fcfcfc #000000
#000000;
#X text 439 94 Start;
#X msg 651 46 open C:/Users/anton/Music/pdOutput.wav;
#X connect 0 0 17 0;
#X connect 1 0 4 0;
#X connect 1 0 9 0;
#X connect 3 0 0 0;
#X connect 3 0 21 0;
#X connect 4 0 10 0;
#X connect 5 0 6 0;
#X connect 6 0 9 1;
#X connect 7 0 10 1;
#X connect 8 0 7 0;
#X connect 9 0 2 1;
#X connect 9 0 2 0;
#X connect 9 0 12 0;
#X connect 9 0 11 0;
#X connect 10 0 5 0;
#X connect 13 0 11 0;
#X connect 14 0 12 0;
#X connect 17 0 1 0;
#X connect 18 0 1 0;
#X connect 18 0 11 0;
#X connect 19 0 18 0;
#X connect 19 0 14 0;
#X connect 21 0 11 0;
